<svg xmlns="http://www.w3.org/2000/svg" width="32" height="28" viewBox="0 0 32 28">
  <defs>
    <style>
      .cls-1 {
        fill: #f9cd38;
      }
    </style>
  </defs>
  <path id="envelope" class="cls-1" d="M31.394,73.246c.244-.226.606-.015.606.343V88.5A3.28,3.28,0,0,1,29,92H3a3.28,3.28,0,0,1-3-3.5V73.6c0-.365.356-.569.606-.343,1.4,1.269,3.256,2.88,9.631,8.283,1.319,1.123,3.544,3.485,5.762,3.471,2.231.022,4.5-2.392,5.769-3.471C28.144,76.133,29.994,74.515,31.394,73.246ZM16,82.667c1.45.029,3.538-2.129,4.588-3.019,8.294-7.022,8.925-7.634,10.837-9.384A1.864,1.864,0,0,0,32,68.885V67.5A3.28,3.28,0,0,0,29,64H3a3.28,3.28,0,0,0-3,3.5v1.385a1.875,1.875,0,0,0,.575,1.378c1.913,1.743,2.544,2.363,10.838,9.384C12.462,80.538,14.55,82.7,16,82.667Z" transform="translate(0 -64)"/>
</svg>
