<svg id="newsletter" xmlns="http://www.w3.org/2000/svg" width="227" height="181.6" viewBox="0 0 227 181.6">
  <defs>
    <style>
      .cls-1 {
        fill: #f8c822;
      }

      .cls-2 {
        fill: none;
      }

      .cls-3 {
        fill: rgba(248,200,34,0.64);
      }
    </style>
  </defs>
  <g id="tv">
    <path id="Shape" class="cls-1" d="M187.275,181.6H39.725a5.682,5.682,0,0,1-5.675-5.675v-11.35a5.681,5.681,0,0,1,5.675-5.674H102.15V147.55H17.025A17.025,17.025,0,0,1,0,130.525V17.025A17.025,17.025,0,0,1,17.025,0h192.95A17.025,17.025,0,0,1,227,17.025v113.5a17.025,17.025,0,0,1-17.024,17.024H124.85V158.9h62.425a5.681,5.681,0,0,1,5.675,5.674v11.35A5.682,5.682,0,0,1,187.275,181.6ZM22.7,22.7V124.85H204.3V22.7Z"/>
  </g>
  <g id="address-card" transform="translate(89 54)">
    <rect id="Background" class="cls-2" width="50" height="44.444"/>
    <path id="Shape-2" data-name="Shape" class="cls-3" d="M45.833,38.889H4.167A4.172,4.172,0,0,1,0,34.722V4.167A4.172,4.172,0,0,1,4.167,0H45.833A4.172,4.172,0,0,1,50,4.167V34.722A4.172,4.172,0,0,1,45.833,38.889ZM11.389,22.222c-3.216,0-5.833,2.243-5.833,5v1.667A1.824,1.824,0,0,0,7.5,30.556H23.055A1.824,1.824,0,0,0,25,28.889V27.222c0-2.757-2.617-5-5.834-5h-.434a8.936,8.936,0,0,1-6.909,0Zm19.861,0a.7.7,0,0,0-.694.695v1.389A.7.7,0,0,0,31.25,25h12.5a.7.7,0,0,0,.695-.695V22.917a.7.7,0,0,0-.695-.695Zm0-5.556a.7.7,0,0,0-.694.695V18.75a.7.7,0,0,0,.694.695h12.5a.7.7,0,0,0,.695-.695V17.361a.7.7,0,0,0-.695-.695ZM15.278,8.333a5.556,5.556,0,1,0,5.556,5.556A5.562,5.562,0,0,0,15.278,8.333ZM31.25,11.111a.7.7,0,0,0-.694.694v1.389a.7.7,0,0,0,.694.695h12.5a.7.7,0,0,0,.695-.695V11.805a.7.7,0,0,0-.695-.694Z" transform="translate(0 2.778)"/>
  </g>
</svg>
